<?xml version="1.0" encoding="UTF-8" standalone="no"?>
<!-- Created with Inkscape (http://www.inkscape.org/) -->

<svg
   xmlns:dc="http://purl.org/dc/elements/1.1/"
   xmlns:cc="http://creativecommons.org/ns#"
   xmlns:rdf="http://www.w3.org/1999/02/22-rdf-syntax-ns#"
   xmlns:svg="http://www.w3.org/2000/svg"
   xmlns="http://www.w3.org/2000/svg"
   xmlns:sodipodi="http://sodipodi.sourceforge.net/DTD/sodipodi-0.dtd"
   xmlns:inkscape="http://www.inkscape.org/namespaces/inkscape"
   width="4.2333298mm"
   height="7.9375mm"
   viewBox="0 0 4.2333298 7.9375"
   version="1.1"
   id="svg8"
   inkscape:version="0.92.1 r15371"
   sodipodi:docname="123.svg">
  <defs
     id="defs2" />
  <sodipodi:namedview
     id="base"
     pagecolor="#ffffff"
     bordercolor="#666666"
     borderopacity="1.0"
     inkscape:pageopacity="0.0"
     inkscape:pageshadow="2"
     inkscape:zoom="0.35"
     inkscape:cx="525.85711"
     inkscape:cy="-421.42861"
     inkscape:document-units="mm"
     inkscape:current-layer="layer1"
     showgrid="false"
     inkscape:window-width="1920"
     inkscape:window-height="1017"
     inkscape:window-x="-8"
     inkscape:window-y="-8"
     inkscape:window-maximized="1"
     fit-margin-top="0"
     fit-margin-left="0"
     fit-margin-right="0"
     fit-margin-bottom="0" />
  <metadata
     id="metadata5">
    <rdf:RDF>
      <cc:Work
         rdf:about="">
        <dc:format>image/svg+xml</dc:format>
        <dc:type
           rdf:resource="http://purl.org/dc/dcmitype/StillImage" />
        <dc:title></dc:title>
      </cc:Work>
    </rdf:RDF>
  </metadata>
  <g
     inkscape:label="Layer 1"
     inkscape:groupmode="layer"
     id="layer1"
     transform="translate(70.152378,-103.2872)">
    <path
       style="fill:#000000;stroke-width:0.26458332"
       d="m -68.829458,109.37262 c 0,-1.79917 -0.0189,-1.85209 -0.66146,-1.85209 -0.52917,0 -0.66146,-0.13229 -0.66146,-0.66145 0,-0.52917 0.13229,-0.66146 0.66146,-0.66146 0.57956,0 0.66146,-0.11466 0.66146,-0.92605 0,-0.57326 0.20158,-1.12762 0.52916,-1.4552 0.32758,-0.32758 0.88195,-0.52917 1.45521,-0.52917 0.80432,0 0.92604,0.0845 0.92604,0.64306 0,0.46543 -0.16443,0.66641 -0.59531,0.7276 -0.42624,0.0605 -0.61909,0.29119 -0.67903,0.81215 -0.0729,0.63319 0.008,0.72761 0.62362,0.72761 0.5363,0 0.6685,0.1012 0.54674,0.41851 -0.0883,0.23018 -0.1606,0.52784 -0.1606,0.66146 0,0.13362 -0.23813,0.24294 -0.52917,0.24294 -0.47877,0 -0.52916,0.17639 -0.52916,1.85209 v 1.85208 h -0.79375 -0.79375 z"
       id="path34"
       inkscape:connector-curvature="0" />
  </g>
</svg>
