<?xml version="1.0" encoding="UTF-8" standalone="no"?>
<!-- Created with Inkscape (http://www.inkscape.org/) -->

<svg
   xmlns:dc="http://purl.org/dc/elements/1.1/"
   xmlns:cc="http://creativecommons.org/ns#"
   xmlns:rdf="http://www.w3.org/1999/02/22-rdf-syntax-ns#"
   xmlns:svg="http://www.w3.org/2000/svg"
   xmlns="http://www.w3.org/2000/svg"
   xmlns:sodipodi="http://sodipodi.sourceforge.net/DTD/sodipodi-0.dtd"
   xmlns:inkscape="http://www.inkscape.org/namespaces/inkscape"
   width="94.670273mm"
   height="36.132641mm"
   viewBox="0 0 94.670273 36.132641"
   version="1.1"
   id="svg8"
   inkscape:version="0.92.1 r15371"
   sodipodi:docname="logo.svg">
  <defs
     id="defs2" />
  <sodipodi:namedview
     id="base"
     pagecolor="#ffffff"
     bordercolor="#666666"
     borderopacity="1.0"
     inkscape:pageopacity="0.0"
     inkscape:pageshadow="2"
     inkscape:zoom="1.4"
     inkscape:cx="257.06764"
     inkscape:cy="223.4623"
     inkscape:document-units="mm"
     inkscape:current-layer="layer1"
     showgrid="false"
     inkscape:window-width="1920"
     inkscape:window-height="1001"
     inkscape:window-x="-9"
     inkscape:window-y="-9"
     inkscape:window-maximized="1"
     fit-margin-top="0"
     fit-margin-left="0"
     fit-margin-right="0"
     fit-margin-bottom="0" />
  <metadata
     id="metadata5">
    <rdf:RDF>
      <cc:Work
         rdf:about="">
        <dc:format>image/svg+xml</dc:format>
        <dc:type
           rdf:resource="http://purl.org/dc/dcmitype/StillImage" />
        <dc:title></dc:title>
      </cc:Work>
    </rdf:RDF>
  </metadata>
  <g
     inkscape:label="Layer 1"
     inkscape:groupmode="layer"
     id="layer1"
     transform="translate(-13.997488,-95.41645)">
    <path
       style="fill:#000000;stroke-width:0.26458332"
       d="m 28.366597,131.22145 c -1.01864,-0.21974 -2.98059,-0.95134 -4.35987,-1.62579 -2.05309,-1.00391 -2.89709,-1.61555 -4.65486,-3.37332 -4.36727,-4.36726 -6.18421,-10.26629 -5.00075,-16.23577 0.24221,-1.22172 0.89532,-3.04482 1.629,-4.54716 1.00352,-2.05492 1.61242,-2.89553 3.37175,-4.65486 1.75776,-1.757765 2.60178,-2.369414 4.65486,-3.373331 4.54308,-2.221477 9.21338,-2.592411 13.70026,-1.088131 3.02968,1.015737 4.69697,2.075491 7.22614,4.593042 1.86959,1.86101 2.47995,2.68496 3.39737,4.58627 0.61507,1.27474 1.25386,3.03091 1.41952,3.90261 0.16566,0.87169 0.36325,1.5843 0.4391,1.58357 0.0759,-7.1e-4 0.42313,-0.95322 0.77173,-2.11666 l 0.63384,-2.11535 h 1.16041 c 0.69336,0 1.2046,0.13312 1.27023,0.33073 0.0604,0.1819 0.491,1.55646 0.95689,3.05457 0.64468,2.07301 0.94677,2.70464 1.2643,2.64349 0.73959,-0.14243 1.08402,-1.31803 1.08806,-3.71368 l 0.004,-2.31511 h 2.51354 2.51354 v 3.67586 c 0,3.02336 -0.0705,3.7029 -0.39687,3.82816 -0.32669,0.12536 -0.39688,0.80887 -0.39688,3.86476 v 3.71247 h -0.83372 -0.83371 l 0.1641,-2.71198 0.1641,-2.71198 -1.4031,2.64583 -1.40309,2.64584 -1.10229,0.0814 -1.10229,0.0814 v -3.82082 c 0,-3.49379 -0.0419,-3.83175 -0.48904,-3.94869 -0.2902,-0.0759 -0.55645,-0.46496 -0.65484,-0.9569 -0.15535,-0.77675 -0.23848,-0.82902 -1.31865,-0.82902 -1.08702,0 -1.16908,0.0529 -1.43706,0.92605 -0.27718,0.90314 -0.26617,0.92604 0.44529,0.92604 2.36732,0 3.77991,1.79025 2.39881,3.04013 -0.52354,0.4738 -0.52285,0.47955 0.13229,1.08671 0.88793,0.8229 0.84703,1.81086 -0.11478,2.77267 -0.71767,0.71767 -0.91675,0.7734 -2.76291,0.7734 h -1.98951 l -0.0814,-1.1174 -0.0814,-1.1174 -1.03291,2.10959 c -0.8068,1.6478 -1.53077,2.60617 -3.30729,4.37815 -2.53213,2.52564 -4.18861,3.57622 -7.26503,4.60765 -2.65579,0.89041 -6.57238,1.11076 -9.29686,0.52304 z m 7.39131,-1.05031 c 4.79426,-1.01562 9.36328,-4.54363 11.47858,-8.86329 1.42944,-2.91909 1.8999,-4.85164 1.8999,-7.8044 0,-2.95277 -0.47046,-4.88532 -1.8999,-7.80441 -2.1153,-4.31966 -6.68432,-7.847675 -11.47858,-8.863294 -9.22219,-1.953631 -18.28331,3.848084 -20.32803,13.015764 -2.68876,12.05525 8.15817,22.8977 20.32803,20.31963 z m -6.86214,-1.56364 c -2.64431,-0.61319 -4.60509,-1.47532 -5.67917,-2.49706 -1.30913,-1.24535 -1.51782,-2.29936 -0.87214,-4.40491 l 0.48681,-1.5875 3.37432,-0.0741 3.37433,-0.0741 0.5302,1.19861 0.5302,1.19862 h 2.10429 c 1.15736,0 2.10428,-0.0989 2.10428,-0.21975 0,-0.12086 -1.42874,-4.06516 -3.175,-8.76511 -1.74624,-4.69995 -3.175,-8.58966 -3.175,-8.64379 0,-0.0541 -0.94547,-0.0984 -2.10105,-0.0984 -1.3836,0 -2.17414,0.11232 -2.3151,0.32895 -0.11773,0.18092 -1.48073,3.72113 -3.0289,7.86713 l -2.81484,7.53819 -0.4476,-1.05412 c -1.23505,-2.90862 -1.48018,-6.35138 -0.67608,-9.49538 0.74079,-2.89646 1.95505,-5.01757 4.11842,-7.19421 4.34193,-4.368543 10.75654,-5.732062 16.62926,-3.534796 1.90646,0.713296 3.80086,2.006776 4.27121,2.916336 0.6801,1.31516 0.4427,2.49554 -1.58087,7.86027 -1.08266,2.87027 -2.07487,5.50632 -2.2049,5.85789 -0.20242,0.5473 -0.47517,-0.004 -1.89654,-3.83645 -0.91306,-2.46163 -1.89395,-5.10077 -2.17974,-5.86475 l -0.51962,-1.38906 h -2.09765 c -1.50267,0 -2.09717,0.0938 -2.09591,0.33073 9.5e-4,0.1819 1.41657,4.14072 3.14581,8.79739 l 3.14405,8.46666 2.23325,0.0758 2.23324,0.0758 2.85758,-7.70093 c 1.57166,-4.23552 2.94526,-7.60337 3.05244,-7.48413 1.12142,1.24767 1.6759,7.27906 0.93206,10.13869 -1.31744,5.06485 -5.20711,9.19903 -10.19185,10.83251 -2.22418,0.72886 -5.93914,0.92915 -8.06979,0.43508 z m -4.56553,-12.65666 c 1.46081,-3.98321 1.8988,-4.96069 2.07872,-4.63919 0.19393,0.34654 1.82535,4.71546 1.82535,4.88827 0,0.0449 -0.9057,0.0816 -2.01268,0.0816 -1.49845,0 -1.98169,-0.0845 -1.89139,-0.33073 z m 28.26313,4.55475 c 0.76924,-0.41168 0.66814,-1.53184 -0.16691,-1.84932 -1.24752,-0.47431 -1.43798,-0.35078 -1.43798,0.93259 0,1.02687 0.0752,1.19063 0.54656,1.19063 0.30061,0 0.77686,-0.12326 1.05833,-0.2739 z m 7.69601,-6.27461 c 0.43908,-0.11482 0.48868,-0.43348 0.48868,-3.13964 v -3.01185 h -0.92604 -0.92604 v 1.86058 c 0,2.14614 -0.46085,3.46534 -1.43311,4.1024 -0.66166,0.43353 -0.68329,0.53377 -0.67515,3.12942 l 0.008,2.68155 1.48728,-2.74733 c 0.87882,-1.62336 1.68722,-2.79962 1.97597,-2.87513 z m -7.6766,2.67875 c 0.67784,-0.61345 0.20032,-1.42191 -0.83986,-1.42191 -0.72012,0 -0.78444,0.0759 -0.78444,0.92604 0,0.774 0.0943,0.92604 0.57448,0.92604 0.31596,0 0.78838,-0.19358 1.04982,-0.43017 z m 0.5951,-7.17659 c -0.20605,-0.69123 -0.4083,-1.3627 -0.44944,-1.49217 -0.0411,-0.12947 -0.2617,0.43608 -0.49013,1.25677 l -0.41532,1.49217 h 0.86477 0.86476 z m 35.71762,13.16301 -0.16924,-1.05833 h -2.61202 -2.61201 v -3.83646 -3.83645 h 0.79375 0.79375 v 3.17499 3.175 h 1.31452 1.31452 l 0.0745,-3.10885 0.0745,-3.10885 0.8599,-0.0829 0.85989,-0.0829 v 3.19176 c 0,2.63007 0.0684,3.19176 0.38848,3.19176 0.31531,0 0.40252,-0.58553 0.46302,-3.10885 l 0.0745,-3.10885 0.84686,-0.0819 0.84686,-0.0819 0.0792,1.66363 0.0792,1.66362 1.05833,-1.64552 c 0.99242,-1.54303 1.12111,-1.64566 2.06614,-1.64783 1.14805,-0.003 1.14119,0.0304 -0.3913,1.88648 -0.55735,0.67504 -1.01338,1.31275 -1.01338,1.41713 0,0.10438 0.28904,0.41714 0.64231,0.69502 0.35326,0.27788 0.78562,0.94986 0.96078,1.49329 0.17517,0.54343 0.38635,1.10476 0.4693,1.24742 0.083,0.14265 0.63652,-1.2861 1.23014,-3.175 l 1.07932,-3.43437 1.100453,-0.0806 1.10046,-0.0806 1.11349,3.52016 1.11349,3.52017 0.38089,-0.92604 c 0.20949,-0.50933 0.61051,-1.17393 0.89116,-1.4769 0.50602,-0.54628 0.50478,-0.55336 -0.14826,-0.8509 -0.36218,-0.16502 -0.73644,-0.61053 -0.83168,-0.99001 -0.39572,-1.57665 1.08274,-2.7676 3.43572,-2.7676 2.07695,0 2.01452,-0.12388 2.01452,3.99705 v 3.67586 h -0.79375 c -0.78689,0 -0.79375,-0.0127 -0.79375,-1.47279 0,-1.45057 -0.011,-1.47152 -0.72761,-1.38906 -0.60723,0.0699 -0.81515,0.31305 -1.25677,1.46984 l -0.52917,1.38612 -1.63312,0.003 c -1.63272,0.003 -1.63321,0.003 -1.93875,-0.9231 -0.28737,-0.87074 -0.37478,-0.92604 -1.46374,-0.92604 -1.116763,0 -1.164403,0.0335 -1.333983,0.93741 l -0.17585,0.93741 -1.72611,-0.0775 -1.7261,-0.0775 -0.34963,-1.18733 c -0.34559,-1.17363 -0.93701,-1.85537 -1.60954,-1.85537 -0.24687,0 -0.3463,0.4558 -0.3463,1.5875 v 1.5875 h -0.92604 c -0.80304,0 -0.92604,0.085 -0.92604,0.63981 0,0.98503 -0.27272,1.47685 -0.81893,1.47685 -0.3761,0 -0.5391,-0.25864 -0.66697,-1.05833 z m 11.450733,-4.61366 c -0.0803,-0.20918 -0.29086,-0.89379 -0.46798,-1.52135 l -0.32203,-1.14102 -0.33375,1.05832 c -0.543033,1.72202 -0.483853,1.98438 0.44765,1.98438 0.60612,0 0.78372,-0.0999 0.67611,-0.38033 z m 6.70392,-1.73634 c 0,-0.94295 -0.0698,-1.05833 -0.63982,-1.05833 -1.02102,0 -1.47685,0.27823 -1.47685,0.90143 0,0.78619 0.48575,1.21524 1.37583,1.21524 0.68792,0 0.74084,-0.0756 0.74084,-1.05834 z m -44.714593,1.45521 c 0,-3.23379 0.0623,-3.83645 0.39688,-3.83645 0.33387,0 0.39687,-0.58797 0.39687,-3.70417 v -3.70417 h 2.38125 c 2.36361,0 2.38125,0.005 2.38125,0.66146 0,0.63206 -0.0706,0.66146 -1.5875,0.66146 h -1.5875 v 0.79375 c 0,0.78573 0.0147,0.79375 1.45521,0.79375 1.36755,0 1.45521,0.039 1.45521,0.64763 0,0.59473 -0.11348,0.65417 -1.38906,0.72761 -1.35459,0.078 -1.39113,0.10131 -1.47198,0.93986 l -0.0829,0.8599 h 1.60427 c 1.53483,0 1.60426,0.0286 1.60426,0.66146 0,0.3638 0.11906,0.66146 0.26458,0.66146 0.16379,0 0.26459,-1.41111 0.26459,-3.70417 v -3.70417 h 0.77992 c 0.75432,0 0.78255,0.0456 0.8599,1.38907 l 0.08,1.38906 1.38906,0.08 1.38906,0.08 v -1.46903 -1.46904 h 0.92604 0.92604 l 0.0209,3.77032 c 0.0115,2.07367 0.0637,3.65125 0.11612,3.50573 0.0524,-0.14553 0.58388,-1.84217 1.18112,-3.77032 l 1.08589,-3.50573 h 1.14385 1.14384 l 0.8082,2.57969 c 0.44451,1.41883 0.95554,3.0857 1.13562,3.70417 0.23217,0.79735 0.46917,1.12448 0.8147,1.12448 0.45092,0 0.48729,0.2863 0.48729,3.83645 v 3.83646 h -0.79375 -0.79375 l -0.003,-2.57969 -0.003,-2.57969 -0.75515,1.48877 c -1.81368,3.57566 -1.89106,3.67061 -2.99102,3.67061 h -1.00961 v -3.85851 c 0,-2.96902 -0.0762,-3.83317 -0.33073,-3.7486 -0.23908,0.0794 -0.35107,1.14867 -0.40414,3.8585 l -0.0734,3.74861 h -0.78649 c -0.78487,0 -0.78648,-0.003 -0.78648,-1.5875 v -1.5875 h -1.45513 -1.45521 v 1.5875 1.5875 h -0.92604 -0.92604 v -3.83646 c 0,-2.38124 -0.10036,-3.83645 -0.26458,-3.83645 -0.16423,0 -0.26459,1.45521 -0.26459,3.83645 v 3.83646 h -0.92604 -0.92604 v -1.5875 -1.5875 h -1.45521 -1.45521 v 1.5875 1.5875 h -0.79375 -0.79375 z m 18.52084,-3.74685 c 0,-0.0493 -0.22488,-0.0896 -0.49973,-0.0896 -0.36163,0 -0.54772,-0.2559 -0.67344,-0.92604 -0.16698,-0.89006 -0.21853,-0.92605 -1.32648,-0.92605 -1.0551,0 -1.17736,0.0706 -1.44322,0.83324 -0.37486,1.07531 -0.39542,1.01885 0.37099,1.01885 h 0.66146 l 0.006,2.84426 0.006,2.84428 1.44953,-2.75467 c 0.79722,-1.51507 1.44951,-2.79499 1.44951,-2.84427 z m -14.02292,1.35178 v -1.46904 l -1.38906,0.08 -1.38907,0.08 -0.08,1.38907 -0.08,1.38905 h 1.46904 1.46903 z m 7.14375,0.0138 c 0,-1.27882 -0.0641,-1.45521 -0.52917,-1.45521 -0.47037,0 -0.52917,-0.17639 -0.52917,-1.5875 v -1.5875 h -1.4552 -1.45521 v 1.5875 c 0,1.41111 0.0588,1.5875 0.52916,1.5875 0.46503,0 0.52917,0.17639 0.52917,1.45521 v 1.4552 h 1.45521 1.45521 z m 5.02198,-4.82865 c -0.003,-0.10914 -0.16409,-0.79375 -0.35841,-1.52135 l -0.3533,-1.32292 -0.31771,1.14103 c -0.17474,0.62756 -0.38338,1.31217 -0.46365,1.52135 -0.10761,0.28042 0.07,0.38033 0.67611,0.38033 0.45214,0 0.81976,-0.0893 0.81696,-0.19844 z"
       id="path81"
       inkscape:connector-curvature="0" />
  </g>
</svg>
