<?xml version="1.0" encoding="UTF-8" standalone="no"?>
<!-- Created with Inkscape (http://www.inkscape.org/) -->

<svg
   xmlns:dc="http://purl.org/dc/elements/1.1/"
   xmlns:cc="http://creativecommons.org/ns#"
   xmlns:rdf="http://www.w3.org/1999/02/22-rdf-syntax-ns#"
   xmlns:svg="http://www.w3.org/2000/svg"
   xmlns="http://www.w3.org/2000/svg"
   xmlns:sodipodi="http://sodipodi.sourceforge.net/DTD/sodipodi-0.dtd"
   xmlns:inkscape="http://www.inkscape.org/namespaces/inkscape"
   width="7.9418249mm"
   height="5.5562501mm"
   viewBox="0 0 7.9418249 5.5562501"
   version="1.1"
   id="svg8"
   inkscape:version="0.92.1 r15371"
   sodipodi:docname="youtube-icon.svg">
  <defs
     id="defs2" />
  <sodipodi:namedview
     id="base"
     pagecolor="#ffffff"
     bordercolor="#666666"
     borderopacity="1.0"
     inkscape:pageopacity="0.0"
     inkscape:pageshadow="2"
     inkscape:zoom="0.35"
     inkscape:cx="115.01632"
     inkscape:cy="-97.571465"
     inkscape:document-units="mm"
     inkscape:current-layer="layer1"
     showgrid="false"
     fit-margin-top="0"
     fit-margin-left="0"
     fit-margin-right="0"
     fit-margin-bottom="0"
     inkscape:window-width="1920"
     inkscape:window-height="1017"
     inkscape:window-x="-8"
     inkscape:window-y="-8"
     inkscape:window-maximized="1" />
  <metadata
     id="metadata5">
    <rdf:RDF>
      <cc:Work
         rdf:about="">
        <dc:format>image/svg+xml</dc:format>
        <dc:type
           rdf:resource="http://purl.org/dc/dcmitype/StillImage" />
        <dc:title></dc:title>
      </cc:Work>
    </rdf:RDF>
  </metadata>
  <g
     inkscape:label="Layer 1"
     inkscape:groupmode="layer"
     id="layer1"
     transform="translate(-75.401931,-117.4613)">
    <path
       style="fill:#000000;stroke-width:0.26458332"
       d="m 75.818136,122.42952 c -0.55494,-0.79229 -0.55494,-3.58789 0,-4.38018 0.38634,-0.55158 0.60686,-0.58804 3.55687,-0.58804 3.7598,0 3.96875,0.14627 3.96875,2.77813 0,2.63186 -0.20895,2.77812 -3.96875,2.77812 -2.95001,0 -3.17053,-0.0365 -3.55687,-0.58803 z m 3.57001,-1.66772 c 0.42934,-0.22202 0.78061,-0.45709 0.78061,-0.52237 0,-0.1289 -1.4691,-0.92604 -1.70665,-0.92604 -0.08,0 -0.14543,0.41672 -0.14543,0.92604 0,1.05839 0.018,1.06715 1.07147,0.52237 z"
       id="path21"
       inkscape:connector-curvature="0" />
  </g>
</svg>
